<svg width="83" height="78" viewBox="0 0 83 78" fill="none" xmlns="http://www.w3.org/2000/svg">
<path d="M36.8994 31.252L36.9008 30.5387C36.9012 30.4186 36.8659 30.3012 36.7994 30.2012C36.7329 30.1012 36.6382 30.0233 36.5273 29.9772C36.4165 29.9311 36.2944 29.9191 36.1767 29.9425C36.0589 29.9659 35.9508 30.0238 35.866 30.1088L30.7604 35.2144C30.7042 35.2708 30.6596 35.3377 30.6293 35.4114C30.599 35.485 30.5835 35.5639 30.5837 35.6436C30.5839 35.7232 30.5998 35.8021 30.6305 35.8756C30.6612 35.9491 30.7061 36.0158 30.7626 36.0719L35.8693 41.1786C35.9538 41.2645 36.062 41.3231 36.1801 41.3469C36.2981 41.3708 36.4206 41.3588 36.5318 41.3125C36.6429 41.2662 36.7377 41.1877 36.8039 41.0871C36.8701 40.9866 36.9048 40.8685 36.9034 40.7481C36.9038 40.588 36.9676 40.4346 37.0808 40.3213C37.194 40.2081 37.3474 40.1444 37.5075 40.1439L48.387 40.1297C48.4664 40.1297 48.5451 40.114 48.6184 40.0837C48.6918 40.0533 48.7585 40.0087 48.8147 39.9525C48.8709 39.8964 48.9154 39.8297 48.9458 39.7563C48.9762 39.6829 48.9918 39.6042 48.9918 39.5248L48.9896 38.5369C48.9887 38.4166 49.0237 38.2988 49.0901 38.1985C49.1565 38.0982 49.2513 38.02 49.3624 37.9739C49.4734 37.9277 49.5957 37.9157 49.7137 37.9395C49.8316 37.9632 49.9398 38.0215 50.0244 38.107L55.1289 43.2116C55.2424 43.3251 55.3064 43.4791 55.3066 43.6397C55.3069 43.8003 55.2435 43.9544 55.1304 44.0684L50.0248 49.174C49.9398 49.2584 49.8317 49.3159 49.7141 49.339C49.5965 49.3622 49.4747 49.35 49.3641 49.304C49.2534 49.258 49.1588 49.1803 49.0922 49.0807C49.0257 48.981 48.9901 48.8639 48.99 48.7441L48.9885 48.0557C48.9903 47.9759 48.9759 47.8967 48.9462 47.8226C48.9165 47.7486 48.8721 47.6814 48.8157 47.625C48.7593 47.5686 48.6921 47.5242 48.6181 47.4945C48.544 47.4648 48.4648 47.4504 48.385 47.4522L30.0769 47.4515C29.9166 47.4504 29.7632 47.3862 29.6499 47.2729C29.5365 47.1595 29.4724 47.0061 29.4712 46.8459L29.4704 24.4367C29.47 24.357 29.4855 24.278 29.5158 24.2042C29.5462 24.1305 29.5908 24.0635 29.6472 24.0072C29.7036 23.9508 29.7706 23.9061 29.8443 23.8758C29.918 23.8454 29.997 23.83 30.0767 23.8303L61.0959 23.8381C61.2561 23.8369 61.4095 23.7728 61.5228 23.6595C61.6362 23.5461 61.7003 23.3927 61.7015 23.2325L61.6968 15.9341C61.6962 15.7737 61.6322 15.62 61.5187 15.5065C61.4053 15.3931 61.2516 15.3291 61.0912 15.3285L20.9326 15.3292C20.7721 15.3298 20.6185 15.3938 20.505 15.5072C20.3916 15.6206 20.3276 15.7743 20.327 15.9348L20.3285 56.0911C20.3291 56.2516 20.3931 56.4053 20.5065 56.5187C20.62 56.6322 20.7737 56.6962 20.9341 56.6968L61.0898 56.6976C61.2499 56.6971 61.4033 56.6333 61.5165 56.5201C61.6297 56.4069 61.6935 56.2535 61.6939 56.0934L61.693 32.4686C61.6925 32.3083 61.6286 32.1547 61.5153 32.0414C61.4019 31.9281 61.2484 31.8642 61.0881 31.8636L37.5072 31.8628C37.4275 31.8631 37.3485 31.8477 37.2748 31.8173C37.201 31.7869 37.1341 31.7423 37.0777 31.6859C37.0213 31.6295 36.9766 31.5626 36.9463 31.4888C36.9159 31.4151 36.9005 31.3361 36.9008 31.2564L36.8994 31.252Z" fill="white"/>
</svg>
