<svg width="49" height="52" viewBox="0 0 49 52" fill="none" xmlns="http://www.w3.org/2000/svg">
<path d="M20.5566 0.482605L39.0839 6.27081C39.6006 6.43213 40.0523 6.75439 40.3729 7.19055C40.6935 7.62671 40.8663 8.15394 40.8661 8.69526V13.176H45.9434C46.6167 13.176 47.2625 13.4435 47.7386 13.9196C48.2147 14.3957 48.4821 15.0414 48.4821 15.7147V20.7921H15.4792V15.7147C15.4792 15.0414 15.7467 14.3957 16.2228 13.9196C16.6989 13.4435 17.3446 13.176 18.0179 13.176H35.7887V10.5612L20.5566 5.79861L5.32444 10.5612V29.3576C5.32408 30.9119 5.6805 32.4455 6.36623 33.8403C7.05197 35.2351 8.04873 36.4539 9.27972 37.4027L9.75953 37.748L20.5566 45.1127L30.1579 38.5629H18.0179C17.3446 38.5629 16.6989 38.2954 16.2228 37.8193C15.7467 37.3433 15.4792 36.6975 15.4792 36.0242V25.8695H48.4821V36.0242C48.4821 36.6975 48.2147 37.3433 47.7386 37.8193C47.2625 38.2954 46.6167 38.5629 45.9434 38.5629L37.7689 38.5654C36.7864 39.8602 35.5932 41.0026 34.2147 41.9419L20.5566 51.2563L6.89843 41.9444C4.8485 40.5468 3.17101 38.6695 2.01181 36.4759C0.852619 34.2823 0.246813 31.8387 0.24707 29.3576V8.69526C0.247376 8.15437 0.420429 7.62772 0.741003 7.19206C1.06158 6.75641 1.51291 6.43454 2.02923 6.27335L20.5566 0.482605Z" fill="url(#paint0_linear_123_709)"/>
<defs>
<linearGradient id="paint0_linear_123_709" x1="24.3646" y1="0.482602" x2="89.2766" y2="17.9355" gradientUnits="userSpaceOnUse">
<stop stop-color="#FD5A14"/>
<stop offset="0.609375" stop-color="#FFF06B" stop-opacity="0.59"/>
<stop offset="1" stop-color="#060ED0" stop-opacity="0.28"/>
</linearGradient>
</defs>
</svg>
